<svg xmlns="http://www.w3.org/2000/svg" xmlns:xlink="http://www.w3.org/1999/xlink" viewBox="0 0 245.54 77.3"><defs><linearGradient id="a" y1="30.86" x2="68.89" y2="30.86" gradientUnits="userSpaceOnUse"><stop offset="0" stop-color="#fbc456"/><stop offset="0.07" stop-color="#fab65b"/><stop offset="0.54" stop-color="#f0587e"/><stop offset="1" stop-color="#f0587e"/></linearGradient></defs><title>Asset 4</title><rect width="68.89" height="61.72" style="fill:url(#a)"/><rect x="15.45" y="15.57" width="68.89" height="61.72" style="fill:#d0b7d8;opacity:0.6900000000000001"/><path d="M48.56,50.83A9.64,9.64,0,0,1,47.16,56a10.79,10.79,0,0,1-3.78,3.63,17.45,17.45,0,0,1-5,1.92,27.73,27.73,0,0,1-6.21.65c-1.24,0-2.52,0-3.84-.11L26.05,62l-.23-4.16c.27,0,1,.11,2.25.22s2.69.16,4.37.16a25.24,25.24,0,0,0,4-.41,13.8,13.8,0,0,0,3.72-1,7.28,7.28,0,0,0,2.62-2,4.83,4.83,0,0,0,.91-3,5.72,5.72,0,0,0-.91-3.27,9.31,9.31,0,0,0-3-2.59A39.47,39.47,0,0,0,36.19,44,39,39,0,0,1,32.29,42a12,12,0,0,1-4.2-3.91,9.12,9.12,0,0,1-1.26-4.73A9,9,0,0,1,28,28.71a11.53,11.53,0,0,1,3-3.33,12.63,12.63,0,0,1,4.53-2.08,23.27,23.27,0,0,1,5.94-.7c1.2,0,2.41,0,3.63.1l2.1.13L47.55,27l-2.11-.2c-1.23-.11-2.76-.17-4.57-.17a16.15,16.15,0,0,0-3.33.36,10.08,10.08,0,0,0-3,1.11,6,6,0,0,0-2,1.85,4.78,4.78,0,0,0-.81,2.77,4.91,4.91,0,0,0,.86,2.73,9.51,9.51,0,0,0,3.19,2.71c.79.48,1.83,1,3.13,1.66s2.58,1.3,3.83,2a12.89,12.89,0,0,1,4.35,3.92A9,9,0,0,1,48.56,50.83Z" style="fill:#fff"/><path d="M62.11,61.72H57.54q0-.53.08-7.8t0-14.91c0-2.17,0-4.92,0-8.23s0-7.12-.1-11.41h4.57c-.06,3.41-.09,7.36-.1,11.87s0,7.19,0,8q0,3,.06,12.47C62.09,58.07,62.11,61.39,62.11,61.72Zm20.68-.58L80,63.66q-6.37-6.51-11.39-11.33c-3.34-3.21-5.18-5-5.53-5.31V47q.69-.65,6.07-6.14t8.71-9l2.79,2.89q-3.45,3.32-7.21,7c-2.52,2.45-4.09,4-4.73,4.6v0Q77.23,55.23,82.79,61.14Z" style="fill:#fff"/><path d="M111.14,46H90.25a12.66,12.66,0,0,0,1.3,5.62,10.61,10.61,0,0,0,3.9,4.24,13,13,0,0,0,3.81,1.6,21.35,21.35,0,0,0,5.15.53c1.09,0,2.1,0,3-.08l1.69-.12-.52,3.84c-.15,0-.66.06-1.53.1s-1.88.08-3.06.08a24.41,24.41,0,0,1-8-1.2,15.16,15.16,0,0,1-5.61-3.31,14.84,14.84,0,0,1-3.2-4.51,14,14,0,0,1-1.31-6.09,17.15,17.15,0,0,1,1-5.95,16.25,16.25,0,0,1,3-5,11.35,11.35,0,0,1,4.23-3,13.38,13.38,0,0,1,5.24-1.07,13.07,13.07,0,0,1,4.77.81A9.6,9.6,0,0,1,107.61,35a12.17,12.17,0,0,1,2.6,4.55A21.14,21.14,0,0,1,111.14,46Zm-4.48-3.23a9.57,9.57,0,0,0-2.44-5.62,6.94,6.94,0,0,0-5.22-2,7.51,7.51,0,0,0-5.4,2.07,11,11,0,0,0-3,5.59Z" style="fill:#fff"/><path d="M123.65,61.72h-4.57c0-.23,0-3,.07-8.45s0-9.88,0-13.45q0-3.43,0-8.68t-.1-11.77h4.57c0,3-.07,6.4-.09,10.3s0,7.19,0,9.86q0,8.76.06,15.32T123.65,61.72Z" style="fill:#fff"/><path d="M157.07,46H136.19a12.52,12.52,0,0,0,1.3,5.62,10.47,10.47,0,0,0,3.9,4.24,12.82,12.82,0,0,0,3.81,1.6,21.26,21.26,0,0,0,5.14.53c1.1,0,2.11,0,3-.08l1.69-.12-.52,3.84c-.15,0-.66.06-1.53.1s-1.89.08-3.06.08a24.36,24.36,0,0,1-8.05-1.2,15.28,15.28,0,0,1-5.62-3.31,15,15,0,0,1-3.19-4.51,13.86,13.86,0,0,1-1.31-6.09,16.92,16.92,0,0,1,1-5.95,16,16,0,0,1,2.94-5,11.47,11.47,0,0,1,4.24-3,13.35,13.35,0,0,1,5.24-1.07,13.1,13.1,0,0,1,4.77.81A9.6,9.6,0,0,1,153.55,35a12.45,12.45,0,0,1,2.6,4.55A21.16,21.16,0,0,1,157.07,46ZM152.6,42.8a9.58,9.58,0,0,0-2.45-5.62,6.91,6.91,0,0,0-5.21-2,7.5,7.5,0,0,0-5.4,2.07,11,11,0,0,0-3,5.59Z" style="fill:#fff"/><path d="M180.59,58.14l-.52,3.67c-.13,0-.47,0-1,.06s-1,0-1.37,0q-5.92,0-8.95-2.47t-3-7.58q0-3.21,0-6.88c0-2.44,0-5.47,0-9.1H161V32.48h5.11V25.64h4.19v6.84h10.34v3.38H170.25c0,.41,0,1.61,0,3.62s-.05,3.48-.05,4.44v7.17c0,2.5.68,4.31,2,5.42s3.43,1.66,6.25,1.66l1.24,0Z" style="fill:#fff"/><path d="M213.58,47.1a17.67,17.67,0,0,1-1.19,6.42,14.45,14.45,0,0,1-3.46,5.23,13.06,13.06,0,0,1-9.5,3.72,14.2,14.2,0,0,1-5.2-.94,12.93,12.93,0,0,1-4.34-2.76,14.14,14.14,0,0,1-3.39-5.2A17.85,17.85,0,0,1,185.3,47a17.45,17.45,0,0,1,1-6.11,14.11,14.11,0,0,1,3.19-5,13.23,13.23,0,0,1,4.51-3.1,13.68,13.68,0,0,1,5.43-1.09,14.13,14.13,0,0,1,5.44,1,12.42,12.42,0,0,1,4.35,3,15,15,0,0,1,3.27,5.13A17.67,17.67,0,0,1,213.58,47.1Zm-4.62.2a16.07,16.07,0,0,0-.88-5.28,10.72,10.72,0,0,0-2.73-4.34A7.84,7.84,0,0,0,202.68,36a9,9,0,0,0-3.22-.59A8.6,8.6,0,0,0,196,36a8.51,8.51,0,0,0-2.77,2,11,11,0,0,0-2.42,4,14.78,14.78,0,0,0-.88,5,15.68,15.68,0,0,0,.9,5.42,10.4,10.4,0,0,0,2.89,4.26,7.85,7.85,0,0,0,2.6,1.55,9.44,9.44,0,0,0,6.51-.1,8.08,8.08,0,0,0,2.76-1.85,11.2,11.2,0,0,0,2.52-4A14.47,14.47,0,0,0,209,47.3Z" style="fill:#fff"/><path d="M245.54,61.72H241c0-.54.05-2.32.08-5.34s0-4.9,0-5.61c0-1,0-2.48,0-4.43s0-3.39,0-4.29q-.09-3.33-1.27-4.77c-.79-1-2.16-1.45-4.1-1.45a12.35,12.35,0,0,0-4.37,1A36,36,0,0,0,226,39.53c0,.22,0,1.36,0,3.44s0,4,0,5.69c0,2.24,0,4.93.07,8.09s.07,4.82.07,5h-4.56q0-.19.06-3.54t0-9.92q0-3,0-7.11t-.1-8.67h4.51l0,3.33,0,0a40.32,40.32,0,0,1,6.74-3.22,14.87,14.87,0,0,1,4.49-.91,7.86,7.86,0,0,1,5.94,2.33,8.81,8.81,0,0,1,2.24,6.37q0,3.65,0,6.28c0,1.76-.05,3.2-.05,4.29q0,2.64.08,6.58C245.51,60.2,245.54,61.59,245.54,61.72Z" style="fill:#fff"/></svg>