<svg xmlns="http://www.w3.org/2000/svg" xmlns:xlink="http://www.w3.org/1999/xlink" viewBox="0 0 298.59 76.76"><defs><linearGradient id="a" x1="140.33" y1="123.27" x2="179.57" y2="162.51" gradientUnits="userSpaceOnUse"><stop offset="0" stop-color="#fbc456"/><stop offset="0.07" stop-color="#fab65b"/><stop offset="0.54" stop-color="#f0587e"/><stop offset="1" stop-color="#f0587e"/></linearGradient></defs><title>logo-dark</title><path d="M144.73,141.53a22.73,22.73,0,0,0,6.64,0c7.54-1.43,13.65-5.94,18.43-14,1.66-2.81,5.83-12.84,5.83-12.84a8.82,8.82,0,0,1,1.67-2.27c1.36-1.28,3.6-3.56,6.82-2.8,4.09,1,8.7,5.4,10.25,9.8,4.08,11.54.64,21.38-9.13,33.77A34.56,34.56,0,0,1,163.93,166c-12.15,2.28-26.58-6.41-38.06-4.27-9.19,1.71-15.1-5.72-8.38-15.15C122,140.25,135.15,139.66,144.73,141.53Z" transform="translate(-114.6 -109.43)" style="fill:url(#a)"/><path d="M179.8,139.64c-1.69,1.71-8.18,5.24-10.37,6.15-14.28,5.91-21.59,6.91-29.86,19.43-2.35,3.54-5.66,9.2-1.47,16.56,2.31,4.07,13.07,4.26,15.67,3.91l1.13-.16a52.63,52.63,0,0,0,36.9-25.41c8.18-13.8,15.25-31.64,16.76-38.16,1-4.31-1.38-6-3.84-6a5.64,5.64,0,0,0-4,1.47l-8.26,8.86S183,136.38,179.8,139.64Z" transform="translate(-114.6 -109.43)" style="fill:#d0b7d8;opacity:0.6900000000000001"/><path d="M225.61,148.18l-3.72,7.34s-4-2.79-8.17-2.79c-3.13,0-4.8,1.42-4.8,3.62s3.82,3.86,8.42,5.82,9.44,5.73,9.44,11c0,9.64-7.34,13-15.21,13a23.58,23.58,0,0,1-15.17-5.33l4.6-7.73s5.38,4.55,9.88,4.55c2,0,5.82-.2,5.82-4,0-2.94-4.3-4.26-9.1-6.66s-7.68-6.16-7.68-10.37c0-7.53,6.66-12.33,13.16-12.33A23,23,0,0,1,225.61,148.18Z" transform="translate(-114.6 -109.43)" style="fill:#e5eff9"/><path d="M247.82,172.35l13.11,13.11H249.78l-10-10v10h-8.66V143.38h8.66v25.74l8.76-8.76h11.25Z" transform="translate(-114.6 -109.43)" style="fill:#e5eff9"/><path d="M268.66,174.11c0,3.86,3.23,5.18,5.43,5.18,2.79,0,4-.53,6.12-2.78l6.26,3.13c-2.83,4.74-7.43,6.55-13,6.55-7.58,0-13.8-6-13.8-13.26a13.59,13.59,0,0,1,13.8-13.3c7.63,0,13.45,4.5,13.45,13.3a8.93,8.93,0,0,1-.05,1.18Zm9.79-4.8a4.46,4.46,0,0,0-4.75-4.06c-3,0-4.64,1.76-4.79,4.06Z" transform="translate(-114.6 -109.43)" style="fill:#e5eff9"/><path d="M290.88,143.38h8.66v42.08h-8.66Z" transform="translate(-114.6 -109.43)" style="fill:#e5eff9"/><path d="M312.6,174.11c0,3.86,3.23,5.18,5.43,5.18,2.79,0,4-.53,6.12-2.78l6.26,3.13c-2.84,4.74-7.44,6.55-13,6.55-7.58,0-13.79-6-13.79-13.26a13.58,13.58,0,0,1,13.79-13.3c7.64,0,13.46,4.5,13.46,13.3a8.93,8.93,0,0,1-.05,1.18Zm9.78-4.8a4.45,4.45,0,0,0-4.74-4.06c-3,0-4.65,1.76-4.8,4.06Z" transform="translate(-114.6 -109.43)" style="fill:#e5eff9"/><path d="M336.13,151h8.66v9.34h5.29V167h-5.29v8c0,2.35.59,3.47,2,3.47a4.07,4.07,0,0,0,2.15-.78l2.16,7a14.38,14.38,0,0,1-6.36,1.56c-6.9,0-8.57-5.13-8.57-9.59V167h-3.62v-6.61h3.62Z" transform="translate(-114.6 -109.43)" style="fill:#e5eff9"/><path d="M367.3,159.63c8.32,0,15,5.48,15,13.3s-6.31,13.26-15,13.26c-9.05,0-15.12-5.53-15.12-13.26S358.84,159.63,367.3,159.63Zm-.05,19.18a5.64,5.64,0,0,0,5.82-5.88,5.85,5.85,0,1,0-11.69,0A5.6,5.6,0,0,0,367.25,178.81Z" transform="translate(-114.6 -109.43)" style="fill:#e5eff9"/><path d="M386.24,160.36h8.65V163h.1a10.44,10.44,0,0,1,7.19-3.37c4.6,0,11,2.3,11,9.29v16.54h-8.66V171.27a4.64,4.64,0,0,0-4.5-4.89,5.35,5.35,0,0,0-5.14,4.89v14.19h-8.65Z" transform="translate(-114.6 -109.43)" style="fill:#e5eff9"/></svg>